<svg width="512" height="512" viewBox="0 0 16 16" fill="none" xmlns="http://www.w3.org/2000/svg">
<rect width="16" height="16" rx="3" fill="#FF6363"/>
<path d="M8 1C6.9 1 6 1.9 6 3V8C6 9.1 6.9 10 8 10C9.1 10 10 9.1 10 8V3C10 1.9 9.1 1 8 1Z" fill="white"/>
<path d="M12 6C12 5.4 11.6 5 11 5C10.4 5 10 5.4 10 6V8C10 10.2 8.2 12 6 12C3.8 12 2 10.2 2 8V6C2 5.4 1.6 5 1 5C0.4 5 0 5.4 0 6V8C0 11.3 2.5 14 5.7 14.3V15H4C3.4 15 3 15.4 3 16H13C13 15.4 12.6 15 12 15H10.3V14.3C13.5 14 16 11.3 16 8V6C16 5.4 15.6 5 15 5C14.4 5 14 5.4 14 6V8C14 10.2 12.2 12 10 12C7.8 12 6 10.2 6 8V6" fill="white"/>
</svg>